<?xml version="1.0" standalone="no"?>
<!DOCTYPE svg PUBLIC "-//W3C//DTD SVG 20010904//EN"
 "http://www.w3.org/TR/2001/REC-SVG-20010904/DTD/svg10.dtd">
<svg version="1.0" xmlns="http://www.w3.org/2000/svg"
 width="400.000000pt" height="400.000000pt" viewBox="0 0 400.000000 400.000000"
 preserveAspectRatio="xMidYMid meet">

<g transform="translate(0.000000,400.000000) scale(0.100000,-0.100000)"
fill="#000000" stroke="none">
<path d="M1895 3226 c-600 -119 -958 -926 -689 -1552 l36 -84 -23 -76 c-48
-161 -152 -265 -379 -376 -102 -50 -121 -63 -105 -69 11 -5 179 -56 374 -115
321 -96 357 -104 380 -92 45 24 215 202 256 270 l40 65 119 5 c115 5 121 4
183 -23 175 -80 388 -78 570 6 132 60 290 199 382 334 56 82 123 219 155 314
50 153 61 228 61 427 0 207 -15 286 -81 448 -144 350 -470 546 -794 478 -63
-13 -68 -13 -152 15 -106 36 -231 45 -333 25z m278 -62 c33 -8 77 -24 96 -33
27 -14 44 -16 66 -9 80 23 190 29 275 14 133 -24 235 -79 340 -185 97 -98 154
-192 201 -331 221 -660 -215 -1450 -799 -1450 -76 0 -200 32 -270 70 -54 29
-57 30 -120 19 -36 -7 -95 -9 -132 -6 l-67 6 -60 -92 c-60 -91 -218 -257 -245
-257 -13 0 -580 169 -586 174 -1 2 38 27 89 57 104 61 209 153 251 219 32 51
78 186 78 231 0 16 -10 49 -21 72 -63 122 -99 291 -99 462 0 423 221 821 546
982 51 25 116 51 145 58 77 19 239 18 312 -1z"/>
<path d="M1881 3145 c-171 -38 -353 -168 -477 -340 -159 -223 -240 -550 -204
-822 18 -129 83 -334 101 -316 5 5 14 131 19 279 14 381 30 466 125 659 133
273 335 415 587 415 82 0 90 2 145 35 32 19 64 35 71 35 21 0 13 16 -14 29
-88 40 -237 51 -353 26z"/>
<path d="M2354 3100 c-313 -82 -571 -402 -651 -808 -23 -120 -23 -339 1 -452
22 -105 72 -240 117 -317 19 -32 72 -96 119 -143 129 -130 256 -184 425 -183
417 4 779 439 819 983 23 309 -100 640 -298 801 -154 126 -345 168 -532 119z
m435 -189 c52 -37 84 -113 84 -196 -1 -155 -93 -276 -212 -278 -169 -3 -242
253 -118 415 67 88 170 113 246 59z m-526 -164 c70 -53 104 -184 74 -288 -65
-222 -279 -277 -374 -95 -27 51 -29 180 -4 246 25 67 70 124 119 150 53 29
138 23 185 -13z m697 -418 c167 -94 115 -430 -75 -478 -113 -28 -204 58 -213
203 -12 197 150 352 288 275z m-420 -47 c97 -98 -14 -304 -131 -242 -47 26
-64 129 -33 196 37 77 112 98 164 46z m-403 -153 c173 -65 174 -392 2 -506
-35 -23 -53 -28 -105 -28 -55 0 -67 4 -101 31 -21 17 -49 53 -63 80 -34 67
-36 195 -3 267 61 133 168 195 270 156z m452 -283 c42 -22 89 -81 102 -128 6
-24 9 -74 7 -113 -16 -240 -259 -342 -361 -152 -18 35 -22 58 -22 132 0 78 4
97 27 140 59 112 165 163 247 121z"/>
<path d="M1913 2985 c-147 -32 -294 -142 -394 -294 -57 -87 -120 -242 -143
-351 -10 -44 -20 -171 -26 -310 -12 -305 -17 -356 -40 -470 -38 -184 -119
-297 -294 -411 -54 -35 -84 -60 -75 -63 8 -3 121 -37 252 -76 130 -39 243 -73
250 -76 17 -6 135 102 195 179 60 79 134 224 156 307 l17 65 -44 89 -44 88
-12 -93 c-7 -52 -15 -97 -19 -101 -7 -7 -279 35 -287 44 -2 2 3 35 11 73 7 39
13 86 14 105 1 63 4 65 131 46 139 -20 150 -20 143 -2 -3 8 -28 16 -60 20 -31
3 -88 11 -128 17 l-73 11 -7 111 c-4 61 -3 114 1 118 7 6 73 -2 196 -25 19 -4
27 -1 27 9 0 8 -1 15 -2 15 -24 1 -221 40 -225 44 -7 6 13 236 21 243 2 2 51
-4 109 -15 85 -15 107 -17 111 -6 6 15 -5 19 -104 34 -113 17 -112 17 -105 53
8 37 63 179 73 189 4 3 50 -2 102 -12 93 -18 110 -18 110 0 0 9 -16 13 -122
31 -38 6 -68 15 -68 19 0 9 70 113 103 152 l23 28 83 -11 c58 -7 87 -7 94 0
16 16 6 20 -71 27 -40 4 -72 10 -72 14 0 9 64 60 113 89 33 20 47 23 92 17 40
-4 56 -2 65 9 11 13 8 15 -16 15 -22 0 -26 3 -14 10 8 5 26 10 40 10 27 0 70
25 70 41 0 13 -84 10 -157 -6z m-15 -42 c-10 -2 -26 -2 -35 0 -10 3 -2 5 17 5
19 0 27 -2 18 -5z m-95 -40 c-7 -2 -21 -2 -30 0 -10 3 -4 5 12 5 17 0 24 -2
18 -5z m-73 -43 c0 -5 -7 -10 -16 -10 -8 0 -12 5 -9 10 3 6 10 10 16 10 5 0 9
-4 9 -10z m-56 -55 c-6 -16 -34 -21 -34 -7 0 13 11 22 26 22 8 0 11 -6 8 -15z
m-54 -54 c0 -12 -20 -25 -27 -18 -7 7 6 27 18 27 5 0 9 -4 9 -9z m-42 -63 c-3
-7 -12 -14 -21 -16 -12 -2 -15 1 -11 12 7 19 38 22 32 4z m-38 -57 c0 -12 -20
-25 -27 -18 -7 7 6 27 18 27 5 0 9 -4 9 -9z m-37 -76 c-3 -8 -9 -15 -14 -15
-10 0 -12 24 -3 33 11 11 24 -3 17 -18z m-25 -57 c-6 -18 -28 -21 -28 -4 0 9
7 16 16 16 9 0 14 -5 12 -12z m-18 -52 c0 -2 -3 -11 -6 -20 -9 -23 -24 -20
-24 4 0 11 7 20 15 20 8 0 15 -2 15 -4z m-28 -88 c-15 -15 -26 -4 -18 18 5 13
9 15 18 6 9 -9 9 -15 0 -24z m-12 -58 c0 -11 -6 -20 -14 -20 -9 0 -12 7 -9 20
3 11 9 20 14 20 5 0 9 -9 9 -20z m-10 -70 c0 -11 -4 -20 -10 -20 -5 0 -10 9
-10 20 0 11 5 20 10 20 6 0 10 -9 10 -20z m0 -71 c0 -10 -7 -19 -15 -19 -15 0
-21 31 -9 43 11 10 24 -3 24 -24z m0 -64 c0 -8 -7 -15 -15 -15 -8 0 -15 7 -15
15 0 8 7 15 15 15 8 0 15 -7 15 -15z m-2 -68 c2 -10 -3 -17 -12 -17 -10 0 -16
9 -16 21 0 24 23 21 28 -4z m0 -70 c2 -10 -3 -17 -12 -17 -10 0 -16 9 -16 21
0 24 23 21 28 -4z m2 -67 c0 -11 -7 -20 -15 -20 -8 0 -15 9 -15 20 0 11 7 20
15 20 8 0 15 -9 15 -20z m-2 -73 c2 -10 -3 -17 -12 -17 -10 0 -16 9 -16 21 0
24 23 21 28 -4z m0 -64 c-4 -22 -22 -20 -26 1 -2 10 3 16 13 16 10 0 15 -7 13
-17z m-8 -63 c0 -11 -7 -20 -15 -20 -15 0 -21 21 -8 33 12 13 23 7 23 -13z
m-8 -76 c-5 -26 -10 -30 -23 -17 -14 14 -3 46 14 40 6 -2 10 -13 9 -23z m-14
-67 c2 -10 -3 -17 -12 -17 -10 0 -16 9 -16 21 0 24 23 21 28 -4z m392 -22 c0
-8 -6 -12 -14 -9 -8 3 -12 12 -9 20 6 17 23 9 23 -11z m-402 -37 c-7 -19 -38
-22 -38 -4 0 10 9 16 21 16 12 0 19 -5 17 -12z m397 -19 c0 -7 -8 -15 -17 -17
-18 -3 -25 18 -11 32 10 10 28 1 28 -15z m-240 -9 c159 -29 155 -28 155 -50 0
-22 -73 -167 -95 -190 -13 -12 -31 -10 -149 19 l-135 33 34 61 c18 34 39 81
46 105 7 23 17 42 23 42 6 0 61 -9 121 -20z m-181 -32 c-9 -30 -8 -30 -27 -22
-13 5 -14 10 -6 25 15 28 42 25 33 -3z m406 -22 c0 -20 -19 -31 -32 -18 -6 6
-7 15 -4 21 10 16 36 13 36 -3z m-430 -35 c0 -14 -28 -33 -39 -27 -16 10 -1
36 20 36 10 0 19 -4 19 -9z m404 -20 c10 -16 -5 -41 -25 -41 -22 0 -23 4 -9
31 11 20 25 25 34 10z m-450 -54 c-7 -19 -20 -22 -29 -7 -9 15 16 43 27 32 5
-5 6 -16 2 -25z m419 -33 c-3 -8 -14 -14 -24 -14 -21 0 -24 11 -8 27 15 15 39
5 32 -13z m-458 -15 c0 -8 -10 -15 -22 -17 -25 -4 -30 7 -11 26 15 15 33 10
33 -9z m312 -72 c7 -8 -146 -165 -168 -172 -15 -5 -255 59 -269 71 -2 3 36 42
85 88 l89 83 129 -33 c71 -18 131 -34 134 -37z m108 32 c0 -7 -8 -15 -17 -17
-18 -3 -25 18 -11 32 10 10 28 1 28 -15z m-465 -9 c0 -15 -30 -32 -46 -26 -15
6 -15 8 1 26 16 17 45 18 45 0z m430 -44 c0 -20 -19 -31 -32 -18 -6 6 -7 15
-4 21 10 16 36 13 36 -3z m-490 -6 c0 -16 -35 -29 -51 -19 -12 8 -12 10 1 19
19 13 50 13 50 0z m-76 -36 c22 -9 10 -24 -20 -24 -25 0 -33 15 -11 23 6 3 13
6 14 6 1 1 8 -2 17 -5z m523 -18 c-2 -6 -17 -13 -33 -14 -28 -4 -28 -3 -10 16
18 21 50 19 43 -2z m-63 -42 c21 -8 2 -34 -25 -34 -22 0 -24 11 -7 28 14 14
12 14 32 6z m-46 -66 c-5 -15 -48 -24 -48 -10 0 14 12 22 33 22 10 0 17 -5 15
-12z"/>
<path d="M1826 1438 c-2 -7 -14 -43 -27 -80 -12 -37 -20 -71 -16 -74 9 -9 188
-7 196 3 4 4 -28 43 -71 86 -48 49 -80 74 -82 65z"/>
<path d="M3312 2190 c0 -19 2 -27 5 -17 2 9 2 25 0 35 -3 9 -5 1 -5 -18z"/>
<path d="M3300 2083 c0 -16 -4 -44 -10 -63 -14 -50 -22 -169 -10 -150 5 8 10
41 10 73 0 32 4 56 8 53 5 -3 10 22 11 54 1 33 0 60 -3 60 -4 0 -6 -12 -6 -27z"/>
<path d="M3251 1848 c-1 -15 -5 -30 -11 -33 -5 -3 -10 -15 -10 -26 0 -11 -9
-38 -20 -60 -15 -33 -16 -40 -4 -35 12 5 14 1 9 -17 -5 -19 -5 -20 5 -4 6 9 8
27 5 38 -5 14 -3 19 4 15 11 -7 27 36 18 51 -2 4 0 17 4 28 8 18 9 17 5 -4 -3
-15 -1 -20 5 -14 6 6 6 24 0 49 -7 32 -9 34 -10 12z"/>
<path d="M3186 1644 c-8 -21 -4 -25 14 -14 11 7 12 12 4 20 -8 8 -13 7 -18 -6z"/>
<path d="M3160 1629 c0 -24 26 -44 36 -27 4 7 3 9 -1 5 -5 -4 -15 3 -22 15 -9
17 -12 19 -13 7z"/>
<path d="M3141 1583 c-7 -8 -10 -17 -6 -21 3 -3 11 0 16 8 8 11 9 7 4 -15 -7
-32 -4 -32 13 0 13 27 -7 49 -27 28z"/>
<path d="M3128 1525 c3 -16 0 -25 -8 -25 -7 0 -10 7 -7 15 4 8 1 17 -6 21 -7
4 -9 4 -5 -1 4 -4 -4 -22 -17 -40 -32 -41 -33 -60 -2 -21 16 20 26 25 31 18 4
-7 3 -12 -2 -12 -5 0 -17 -10 -25 -23 -13 -20 -13 -24 -1 -24 8 0 14 5 14 10
0 5 11 22 25 39 20 23 23 33 15 49 -14 26 -18 24 -12 -6z"/>
<path d="M3045 1431 c6 -19 4 -23 -8 -18 -8 3 -23 -3 -32 -13 -15 -16 -15 -22
-5 -35 8 -10 9 -15 2 -15 -6 0 -9 -7 -6 -15 8 -21 -13 -19 -25 3 -10 15 -11
15 -17 -5 -3 -13 -10 -20 -15 -17 -5 3 -6 -2 -2 -12 5 -13 2 -15 -13 -10 -15
4 -30 -5 -59 -34 -21 -22 -46 -40 -55 -41 -11 0 -11 -2 -2 -6 7 -3 22 3 32 12
18 16 40 14 40 -5 0 -5 -10 -18 -21 -29 -19 -17 -23 -18 -36 -5 -8 8 -22 13
-31 13 -15 -1 -15 -2 1 -6 9 -2 17 -9 17 -14 0 -5 -3 -8 -7 -7 -5 1 -28 -8
-51 -21 -35 -18 -43 -27 -39 -43 5 -17 2 -19 -21 -13 -15 3 -33 13 -39 22 -7
9 -13 12 -13 6 0 -7 -12 -14 -27 -16 -26 -4 -25 -4 5 -6 25 -1 32 -5 30 -17
-2 -10 4 -19 12 -21 12 -4 12 -3 2 5 -11 7 -10 10 3 16 23 8 27 8 20 -4 -8
-12 19 -3 63 23 18 11 31 22 28 25 -3 3 -12 -1 -21 -8 -9 -7 -18 -10 -21 -7
-10 10 6 27 26 27 10 0 20 4 22 9 2 4 14 12 27 16 17 5 21 4 16 -5 -4 -6 8 -2
27 11 33 21 46 53 27 64 -5 4 -9 12 -9 18 1 7 9 2 19 -10 11 -13 22 -23 25
-23 11 0 6 18 -8 33 -9 9 -11 19 -5 28 6 9 11 11 17 3 14 -20 40 -23 54 -6 8
10 8 13 1 9 -15 -9 -25 7 -17 27 6 15 8 15 19 -1 12 -16 14 -16 30 1 10 9 15
20 12 23 -4 3 2 13 12 22 24 20 33 61 20 81 -8 11 -9 9 -4 -9z m-19 -45 c0
-14 -6 -22 -13 -19 -7 3 -13 7 -13 9 0 4 23 33 26 34 1 0 1 -11 0 -24z"/>
<path d="M2925 1250 c-3 -5 -1 -10 4 -10 6 0 11 5 11 10 0 6 -2 10 -4 10 -3 0
-8 -4 -11 -10z"/>
<path d="M2735 1173 c-44 -23 -75 -49 -68 -57 10 -10 25 -7 18 4 -3 6 -1 10 5
10 6 0 20 9 32 20 12 11 28 20 35 20 7 0 13 5 13 10 0 12 1 13 -35 -7z"/>
<path d="M1988 1153 c13 -3 20 -9 16 -15 -5 -7 3 -9 22 -5 16 3 23 4 16 1 -6
-3 -10 -10 -6 -15 5 -9 -13 -13 -51 -10 -12 1 -32 -3 -45 -8 -19 -8 -11 -9 38
-5 35 2 67 5 70 5 4 1 14 1 22 0 13 -1 13 -3 0 -12 -13 -9 -12 -10 3 -5 9 3
17 2 17 -3 0 -26 146 -49 167 -27 5 4 1 7 -7 6 -52 -8 -99 12 -52 22 12 3 9 6
-10 10 -18 3 -25 1 -21 -6 4 -6 -3 -2 -15 8 -12 11 -22 14 -22 8 0 -19 -33
-13 -60 9 -16 13 -19 19 -7 15 47 -16 49 -16 16 3 -21 11 -54 22 -75 24 -22 3
-29 2 -16 0z m168 -88 c18 -13 18 -14 -4 -8 -12 3 -25 9 -28 14 -8 14 10 11
32 -6z"/>
<path d="M1796 1125 c-9 -13 -16 -29 -16 -34 0 -5 -5 -11 -12 -13 -9 -3 -9 -6
0 -12 7 -4 12 -2 12 4 0 6 4 9 10 5 6 -3 5 -15 -2 -30 -13 -28 -30 -34 -22 -7
5 14 4 15 -5 2 -8 -11 -11 -12 -11 -2 0 7 -5 10 -10 7 -6 -4 -4 -12 5 -21 22
-22 19 -40 -4 -20 -16 15 -19 15 -31 1 -7 -9 -10 -18 -6 -22 3 -3 6 -1 6 5 0
7 4 12 9 12 5 0 9 -11 9 -24 0 -21 -3 -23 -19 -13 -16 10 -24 6 -54 -23 -21
-21 -31 -36 -24 -41 6 -3 10 -10 9 -15 -1 -5 4 -10 11 -13 7 -2 9 1 4 9 -6 10
-4 12 8 7 11 -4 14 -2 10 9 -3 8 -12 13 -20 10 -9 -4 -13 -1 -10 6 2 8 19 12
39 12 29 -1 38 3 49 24 8 14 25 37 38 51 29 33 46 74 32 79 -13 4 -15 32 -2
32 5 0 11 -4 13 -10 3 -8 48 -4 146 16 41 8 41 20 1 28 -45 9 -59 8 -59 -5 0
-6 9 -8 20 -4 11 3 20 2 20 -3 0 -12 -51 -22 -79 -15 -12 3 -21 1 -21 -6 0 -7
-5 -9 -11 -5 -8 4 -7 9 2 16 11 7 9 8 -5 4 -13 -5 -17 -2 -12 9 8 22 0 18 -18
-10z m-83 -188 c-5 -8 -8 -7 -11 1 -3 10 -7 10 -18 1 -9 -7 -14 -8 -14 -1 0 6
6 12 13 15 18 6 38 -4 30 -16z"/>
<path d="M1835 1140 c3 -5 13 -10 21 -10 8 0 12 5 9 10 -3 6 -13 10 -21 10 -8
0 -12 -4 -9 -10z"/>
<path d="M1878 1083 c6 -2 18 -2 25 0 6 3 1 5 -13 5 -14 0 -19 -2 -12 -5z"/>
<path d="M2480 1079 c-18 -6 -13 -7 18 -4 41 5 60 -9 25 -18 -10 -2 -7 -3 7
-1 14 1 32 -2 40 -8 13 -8 13 -9 -1 -5 -8 3 -26 -1 -40 -9 -33 -18 -13 -17 52
3 l54 17 -35 7 c-30 5 -31 7 -8 8 15 0 29 5 32 10 7 11 -110 11 -144 0z"/>
<path d="M2245 1070 c17 -4 70 -8 118 -9 49 0 86 -5 83 -10 -3 -4 -42 -6 -86
-4 -46 3 -80 1 -80 -4 0 -11 157 -10 183 1 10 5 17 4 17 -3 0 -6 -10 -13 -22
-15 -13 -3 -32 -7 -43 -10 -11 -2 4 -4 33 -3 32 0 48 3 40 8 -10 7 -10 9 1 9
26 0 -9 29 -43 34 -54 8 -232 13 -201 6z"/>
<path d="M2266 1018 c3 -4 33 -8 66 -8 34 0 59 2 57 4 -8 9 -128 13 -123 4z"/>
<path d="M714 1005 c-4 -9 4 -23 17 -35 27 -22 38 -24 59 -10 9 5 19 5 27 -2
8 -6 17 -8 20 -4 4 4 1 11 -7 16 -13 8 -13 10 1 10 9 0 22 -7 29 -15 10 -12 8
-16 -11 -23 -20 -8 -17 -10 25 -21 27 -6 51 -9 54 -6 3 3 -2 5 -12 5 -10 0
-14 5 -10 11 5 9 -1 10 -22 5 -22 -5 -25 -4 -13 4 12 7 34 7 69 0 79 -15 83
-10 10 10 -36 10 -92 28 -124 39 -33 12 -66 21 -75 20 -9 -1 2 -7 24 -13 39
-12 39 -13 17 -25 -13 -7 -28 -10 -35 -7 -8 3 -6 5 3 5 9 1 5 6 -10 14 -14 8
-24 19 -22 25 3 17 -8 15 -14 -3z"/>
<path d="M948 924 c6 -3 10 -9 7 -14 -3 -4 5 -6 17 -3 17 3 19 2 9 -5 -10 -7
-5 -12 23 -22 39 -12 50 -9 66 21 9 15 7 19 -6 19 -10 0 -14 -5 -11 -15 8 -20
-5 -26 -39 -15 l-29 8 30 2 30 2 -30 8 c-52 15 -80 20 -67 14z"/>
<path d="M1105 901 l20 -8 -20 -5 c-12 -3 -7 -5 13 -5 37 0 43 12 10 21 -32 8
-47 6 -23 -3z"/>
<path d="M1567 861 c-25 -25 -26 -30 -13 -44 8 -8 12 -17 9 -20 -3 -3 -12 0
-20 8 -19 19 -33 19 -33 -1 0 -15 -67 -50 -77 -40 -3 3 6 10 21 15 34 13 33
16 -7 17 -17 1 -26 -1 -19 -3 19 -7 4 -23 -21 -22 -13 0 -16 3 -8 6 11 5 11 7
0 14 -10 6 -11 9 -1 9 6 0 12 5 12 11 0 7 -7 8 -17 4 -27 -11 -73 -13 -79 -3
-3 4 -17 8 -32 8 l-27 0 29 -15 c16 -9 36 -13 44 -10 8 3 20 -1 26 -9 6 -8 41
-23 78 -32 l67 -18 34 25 c19 13 51 39 71 56 l36 33 -20 20 c-11 11 -21 20
-22 20 -2 0 -16 -13 -31 -29z m45 -23 c-6 -6 -15 -8 -19 -4 -4 4 -1 11 7 16
19 12 27 3 12 -12z m-25 -24 c-3 -3 -13 0 -21 9 -8 8 -12 18 -9 21 4 4 14 0
22 -9 8 -8 12 -17 8 -21z m-53 -44 c-11 -11 -16 -11 -26 -2 -9 9 -8 12 5 12
11 0 14 5 10 17 -6 15 -5 16 9 3 14 -13 15 -17 2 -30z m-37 -16 c-3 -3 -12 -4
-19 -1 -8 3 -5 6 6 6 11 1 17 -2 13 -5z"/>
<path d="M1073 864 c6 -6 84 -14 157 -15 l35 -1 -30 -9 c-20 -6 -39 -5 -57 2
-14 6 -35 9 -45 7 -10 -2 8 -10 39 -17 49 -12 61 -12 95 2 21 9 30 16 20 16
-9 1 -26 7 -37 14 -17 10 -22 9 -29 -2 -7 -10 -13 -11 -29 -2 -22 11 -130 16
-119 5z"/>
<path d="M1315 830 c3 -5 13 -10 21 -10 8 0 12 5 9 10 -3 6 -13 10 -21 10 -8
0 -12 -4 -9 -10z"/>
</g>
</svg>
